<!-- Generator: Adobe Illustrator 23.0.2, SVG Export Plug-In  -->
<svg version="1.1" xmlns="http://www.w3.org/2000/svg" xmlns:xlink="http://www.w3.org/1999/xlink" x="0px" y="0px"
	 width="773.48px" height="140.48px" viewBox="0 0 773.48 140.48" style="enable-background:new 0 0 773.48 140.48;"
	 xml:space="preserve">
<style type="text/css">
	.st0{fill:none;stroke:#000000;stroke-width:3;stroke-miterlimit:10;}
</style>
<defs>
</defs>
<path class="st0" d="M772.78,1.33c-47.79,25.08-128.27,61.86-233,82c-253.32,48.72-379.61-51.61-516,39
	c-7.92,5.26-15.54,10.94-22.83,16.99"/>
</svg>

<svg width="774" height="138" viewBox="0 0 774 138" fill="none" xmlns="http://www.w3.org/2000/svg">
<path d="M772.83 0C725.04 25.08 644.56 61.86 539.83 82C286.51 130.72 160.22 30.39 23.83 121C15.91 126.26 8.29 131.94 1 137.99" stroke="black" stroke-width="3" stroke-miterlimit="10"/>
</svg>


<svg width="1349" height="138" viewBox="0 0 1349 138" fill="none" xmlns="http://www.w3.org/2000/svg">

<path d="M1059.83 0C1012.04 25.08 931.56 61.86 826.83 82C573.51 130.72 447.22 30.39 310.83 121C302.91 126.26 295.29 131.94 288 137.99" stroke="black" stroke-width="3" stroke-miterlimit="10"/>
</svg>

<!-- Generator: Adobe Illustrator 23.0.2, SVG Export Plug-In  -->
<svg version="1.1" xmlns="http://www.w3.org/2000/svg" xmlns:xlink="http://www.w3.org/1999/xlink" x="0px" y="0px" width="1349px"
	 height="418.68px" viewBox="0 0 1349 418.68" style="enable-background:new 0 0 1349 418.68;" xml:space="preserve">

	<path d="M215.67,1.15C151.79,54.17,112.73,135.61,110.5,213.16c-2.48,86.4,41.11,155.78,86.17,204.5"/>

</svg>

<!-- Generator: Adobe Illustrator 23.0.2, SVG Export Plug-In  -->
<svg version="1.1" xmlns="http://www.w3.org/2000/svg" xmlns:xlink="http://www.w3.org/1999/xlink" x="0px" y="0px" width="1351px"
	 height="141px" viewBox="0 0 1351 141" style="enable-background:new 0 0 1351 141;" xml:space="preserve">

	<path  d="M988.5,1.5c-47.79,25.08-128.27,61.86-233,82c-253.32,48.72-379.61-51.61-516,39
		c-7.92,5.26-15.54,10.94-22.83,16.99"/>

</svg>


<!-- Generator: Adobe Illustrator 23.0.2, SVG Export Plug-In  -->
<svg version="1.1" xmlns="http://www.w3.org/2000/svg" xmlns:xlink="http://www.w3.org/1999/xlink" x="0px" y="0px" width="1348px"
	 height="139.65px" viewBox="0 0 1348 139.65" style="enable-background:new 0 0 1348 139.65;" xml:space="preserve">

	<path class="st1" d="M987,0.89c-47.79,25.08-128.27,61.86-233,82c-253.32,48.72-379.61-51.61-516,39
		c-7.92,5.26-15.54,10.94-22.83,16.99"/>
</svg>

<!-- Generator: Adobe Illustrator 23.0.2, SVG Export Plug-In  -->
<svg version="1.1" xmlns="http://www.w3.org/2000/svg" xmlns:xlink="http://www.w3.org/1999/xlink" x="0px" y="0px" width="1349px"
	 height="417.96px" viewBox="0 0 1349 417.96" style="enable-background:new 0 0 1349 417.96;" xml:space="preserve">


	<path class="st1" d="M215.67,0.77C151.79,53.79,112.73,135.23,110.5,212.78c-2.48,86.4,41.11,155.78,86.17,204.5"/>

</svg>
<!-- Generator: Adobe Illustrator 23.0.2, SVG Export Plug-In  -->
<svg version="1.1" xmlns="http://www.w3.org/2000/svg" xmlns:xlink="http://www.w3.org/1999/xlink" x="0px" y="0px" width="1349px"
	 height="433.05px" viewBox="0 0 1349 433.05" style="enable-background:new 0 0 1349 433.05;" xml:space="preserve">


	<path class="st1" d="M196.67,1.02c35.06,37.92,71.02,63.32,86.83,74.5c97.83,69.13,200.57,67.4,398,67
		c210.07-0.42,303.93-91.79,384-35c71.18,50.48,84.73,161.43,71,169c-12.75,7.03-43.54-78.09-114-95
		c-82.08-19.7-191.74,59.46-233,155c-13.05,30.23-19.67,63.06-20.44,96.5"/>
</svg>

<!-- Generator: Adobe Illustrator 23.0.2, SVG Export Plug-In  -->
<svg version="1.1" xmlns="http://www.w3.org/2000/svg" xmlns:xlink="http://www.w3.org/1999/xlink" x="0px" y="0px"
	 width="1350.78px" height="320.03px" viewBox="0 0 1350.78 320.03" style="enable-background:new 0 0 1350.78 320.03;"
	 xml:space="preserve">


	<path class="st1" d="M769.06,0.03c-2.44,106.27,54.24,218.72,151.44,273.5c136.89,77.15,331.69,27.24,429-130"/>
</svg>

